<?xml version="1.0" encoding="UTF-8"?>
<svg xmlns="http://www.w3.org/2000/svg" xmlns:xlink="http://www.w3.org/1999/xlink" width="2767.21pt" height="607.46pt" viewBox="0 0 2767.21 607.46" version="1.1">
<defs>
<clipPath id="clip1">
  <path d="M 0 0 L 603 0 L 603 607.460938 L 0 607.460938 Z M 0 0 "/>
</clipPath>
<clipPath id="clip2">
  <path d="M 2467 70 L 2767.210938 70 L 2767.210938 452 L 2467 452 Z M 2467 70 "/>
</clipPath>
<clipPath id="clip3">
  <path d="M 0 0 L 603 0 L 603 607.460938 L 0 607.460938 Z M 0 0 "/>
</clipPath>
<clipPath id="clip4">
  <path d="M 2467 70 L 2767.210938 70 L 2767.210938 452 L 2467 452 Z M 2467 70 "/>
</clipPath>
</defs>
<g id="surface1">
<g clip-path="url(#clip1)" clip-rule="nonzero">
<path style=" stroke:none;fill-rule:evenodd;fill:rgb(100%,100%,100%);fill-opacity:1;" d="M 195.691406 330.929688 C 200.941406 339.480469 204.386719 344.800781 207.554688 350.28125 C 252.628906 428.214844 297.96875 505.996094 342.410156 584.289063 C 349.648438 597.035156 356.828125 600.742188 371.167969 597.21875 C 506.441406 563.980469 602.179688 444.0625 602.816406 306.15625 C 603.457031 166.582031 509.636719 45.058594 373.660156 11.839844 C 345.058594 4.847656 314.980469 3.898438 284.277344 0.00390625 C 287.113281 21.390625 296.289063 25.996094 312.242188 26.40625 C 380.652344 28.152344 439.84375 53.648438 489.972656 99.953125 C 493.640625 103.347656 497.117188 111.292969 495.601563 115.101563 C 491.507813 125.425781 484.675781 134.660156 478.785156 144.566406 C 415.734375 90.378906 357.992188 63.601563 322.082031 71.164063 C 325.765625 86.394531 335.519531 93.160156 351.019531 96.191406 C 392.777344 104.355469 427.222656 126.246094 456.933594 156.328125 C 464.285156 163.777344 465.519531 169.914063 459.769531 179.011719 C 449.226563 195.691406 439.804688 213.082031 429.90625 230.171875 C 419.972656 247.34375 410.027344 264.511719 399.039063 283.480469 C 395.640625 278.234375 393.988281 275.921875 392.566406 273.472656 C 344.242188 190.046875 295.734375 106.726563 247.878906 23.035156 C 241.628906 12.101563 236.050781 9.308594 223.363281 12.625 C 89.601563 47.59375 -2.59375 171.398438 0.0546875 313.679688 C 2.542969 447.203125 102.558594 569.402344 233.589844 597.695313 C 257.359375 602.828125 281.96875 604.109375 308.492188 607.460938 C 298.292969 582.707031 298.28125 582.890625 278.847656 581.4375 C 270.179688 580.792969 261.511719 579.605469 252.957031 578.035156 C 193.460938 567.144531 142.730469 540.101563 100.269531 495.84375 C 107.492188 483.660156 114.148438 472.433594 120.933594 460.980469 C 193.285156 518.671875 228.269531 536.675781 268.882813 537.546875 C 264.835938 521.589844 255.207031 512.894531 238.671875 508.429688 C 200.777344 498.1875 168.953125 477.046875 142.914063 447.71875 C 139.476563 443.847656 136.175781 435.398438 138.066406 431.9375 C 156.050781 398.914063 175.171875 366.503906 195.691406 330.929688 "/>
</g>
<g clip-path="url(#clip2)" clip-rule="nonzero">
<path style=" stroke:none;fill-rule:evenodd;fill:rgb(100%,100%,100%);fill-opacity:1;" d="M 2635.679688 306.707031 C 2645.789063 305.335938 2652.660156 304.578125 2659.480469 303.457031 C 2738.511719 290.398438 2779.710938 216.316406 2748.390625 142.652344 C 2726.929688 92.1875 2686.03125 71.480469 2633.328125 70.992188 C 2582.210938 70.519531 2531.078125 70.824219 2479.949219 70.941406 C 2475.578125 70.949219 2471.210938 72.09375 2467.378906 72.632813 C 2467.378906 199.691406 2467.378906 325.339844 2467.378906 450.425781 C 2476.878906 450.425781 2484.769531 450.425781 2494.261719 450.425781 C 2494.261719 443.042969 2494.261719 436.765625 2494.261719 430.492188 C 2494.269531 394.46875 2494.699219 358.4375 2494.039063 322.433594 C 2493.808594 310.183594 2497.878906 306.132813 2510.019531 306.5 C 2534.398438 307.238281 2558.878906 305.742188 2583.179688 307.214844 C 2591.871094 307.75 2602.421875 312.085938 2608.320313 318.292969 C 2644.328125 356.175781 2680.351563 394.167969 2714.011719 434.113281 C 2728.75 451.605469 2744.378906 453.621094 2767.210938 449.976563 C 2722.921875 401.730469 2680.359375 355.382813 2635.679688 306.707031 "/>
</g>
<path style=" stroke:none;fill-rule:evenodd;fill:rgb(100%,100%,100%);fill-opacity:1;" d="M 829.425781 319.523438 C 837.632813 319.523438 843.355469 319.527344 849.070313 319.523438 C 890.324219 319.492188 931.601563 320.335938 972.824219 319.1875 C 1017.851563 317.929688 1053.101563 298.640625 1075.230469 258.117188 C 1115.351563 184.628906 1078.230469 70.027344 966.421875 70.851563 C 917.035156 71.214844 867.640625 71.394531 818.265625 70.546875 C 803.734375 70.296875 799.59375 74.667969 799.660156 89.136719 C 800.167969 204.757813 799.882813 320.378906 799.933594 436.003906 C 799.9375 440.9375 800.855469 445.875 801.289063 450.191406 C 811.511719 450.191406 819.882813 450.191406 829.425781 450.191406 C 829.425781 406.542969 829.425781 364.277344 829.425781 319.523438 "/>
<path style=" stroke:none;fill-rule:evenodd;fill:rgb(100%,100%,100%);fill-opacity:1;" d="M 1698.640625 256.035156 C 1741.421875 195.007813 1783.609375 134.8125 1826.320313 73.878906 C 1799.140625 68.792969 1798.511719 68.96875 1785.21875 87.601563 C 1765.980469 114.558594 1746.871094 141.601563 1727.621094 168.539063 C 1712.53125 189.652344 1697.308594 210.667969 1681.210938 233.03125 C 1677.101563 227.859375 1674.148438 224.492188 1671.570313 220.863281 C 1640.21875 176.867188 1608.089844 133.390625 1578.070313 88.511719 C 1567.050781 72.046875 1554.789063 68.578125 1535.820313 73.359375 C 1539.378906 78.925781 1542.210938 83.753906 1545.421875 88.328125 C 1581.738281 140.195313 1617.890625 192.195313 1654.699219 243.722656 C 1661.128906 252.726563 1661.621094 258.828125 1654.851563 267.9375 C 1630.238281 301.03125 1606.519531 334.789063 1582.511719 368.328125 C 1563.371094 395.046875 1544.300781 421.820313 1524.289063 449.84375 C 1545.640625 454.230469 1559.488281 451.160156 1571.570313 432.859375 C 1602.910156 385.363281 1636.710938 339.488281 1669.601563 293.007813 C 1672.820313 288.445313 1676.449219 284.175781 1680.929688 278.433594 C 1685.78125 284.753906 1689.730469 289.550781 1693.308594 294.617188 C 1725.511719 340.15625 1758.71875 385.035156 1789.261719 431.652344 C 1801.480469 450.304688 1814.96875 455.167969 1837.28125 449.613281 C 1790.570313 384.386719 1744.730469 320.375 1698.640625 256.035156 "/>
<path style=" stroke:none;fill-rule:evenodd;fill:rgb(100%,100%,100%);fill-opacity:1;" d="M 2030.769531 71.832031 C 2030.769531 199.433594 2030.769531 324.652344 2030.769531 450.519531 C 2111.679688 450.519531 2191.53125 450.519531 2272.210938 450.519531 C 2272.210938 441.683594 2272.210938 433.90625 2272.210938 423.953125 C 2200.769531 423.953125 2130.269531 423.953125 2057.671875 423.953125 C 2057.671875 305.355469 2057.671875 188.917969 2057.671875 71.832031 C 2047.628906 71.832031 2039.75 71.832031 2030.769531 71.832031 "/>
<path style=" stroke:none;fill-rule:evenodd;fill:rgb(100%,100%,100%);fill-opacity:1;" d="M 1320.191406 450.765625 C 1320.191406 323.320313 1320.191406 197.980469 1320.191406 70.945313 C 1310.730469 71.371094 1302.488281 71.746094 1294.390625 72.113281 C 1294.390625 199.5625 1294.390625 324.828125 1294.390625 450.765625 C 1303.578125 450.765625 1311.441406 450.765625 1320.191406 450.765625 "/>
<g clip-path="url(#clip3)" clip-rule="nonzero">
<path style=" stroke:none;fill-rule:evenodd;fill:rgb(13.699341%,12.199402%,12.5%);fill-opacity:1;" d="M 296.546875 381.539063 C 332.066406 393.21875 348.203125 373.984375 365.066406 345.335938 C 381.597656 317.25 380.875 297.539063 365.132813 269.144531 C 348.429688 239.011719 330.023438 229.644531 296.347656 229.617188 C 263.632813 229.585938 247.054688 240.324219 230.308594 267.769531 C 212.382813 297.132813 212.941406 318.0625 230.628906 346.949219 C 247.191406 374.003906 262.445313 392.824219 296.546875 381.539063 Z M 226.609375 231.207031 C 161.792969 231.207031 101.535156 230.980469 41.289063 231.734375 C 37.507813 231.78125 31.660156 238.871094 30.433594 243.628906 C 20.398438 282.476563 20.675781 321.761719 28.804688 360.847656 C 37.636719 403.316406 55.324219 441.738281 84.457031 477.523438 C 131.867188 395.371094 178.054688 315.34375 226.609375 231.207031 Z M 36.53125 206.679688 C 137.582031 206.679688 231.140625 206.679688 327.238281 206.679688 C 294.894531 150.730469 264.121094 96.902344 232.28125 43.710938 C 230.089844 40.050781 219.121094 38.613281 213.652344 40.421875 C 163.410156 57.023438 120.164063 85.027344 87.71875 126.929688 C 69.21875 150.816406 54.804688 177.867188 36.53125 206.679688 Z M 268.238281 407.570313 C 270 411.519531 270.894531 414.136719 272.246094 416.480469 C 300.671875 465.757813 329.375 514.875 357.40625 564.375 C 362.398438 573.183594 366.949219 574.839844 376.671875 571.953125 C 458.203125 547.707031 516.8125 496.890625 553.933594 420.777344 C 555.855469 416.847656 556.636719 412.367188 558.121094 407.570313 C 461.117188 407.570313 365.578125 407.570313 268.238281 407.570313 Z M 369.3125 381.238281 C 373.546875 382.371094 375.167969 383.175781 376.789063 383.179688 C 437.136719 383.300781 497.488281 383.125 557.828125 383.625 C 568.355469 383.703125 570.140625 377.628906 571.945313 369.941406 C 584.875 314.828125 582.109375 260.582031 562.539063 207.421875 C 551.988281 178.75 537.457031 152.335938 515.832031 127.402344 C 466.40625 213.027344 418.390625 296.222656 369.3125 381.238281 Z M 195.691406 330.929688 C 175.171875 366.503906 156.050781 398.914063 138.066406 431.9375 C 136.175781 435.398438 139.476563 443.847656 142.914063 447.71875 C 168.953125 477.046875 200.777344 498.1875 238.671875 508.429688 C 255.207031 512.894531 264.835938 521.589844 268.871094 537.558594 C 228.269531 536.675781 193.285156 518.671875 120.933594 460.980469 C 114.148438 472.433594 107.492188 483.660156 100.269531 495.84375 C 142.730469 540.101563 193.460938 567.144531 252.957031 578.035156 C 261.511719 579.605469 270.179688 580.792969 278.847656 581.4375 C 298.28125 582.890625 298.292969 582.707031 308.492188 607.460938 C 281.96875 604.109375 257.359375 602.828125 233.589844 597.695313 C 102.558594 569.402344 2.542969 447.203125 0.0546875 313.679688 C -2.59375 171.398438 89.601563 47.59375 223.363281 12.625 C 236.050781 9.308594 241.628906 12.101563 247.878906 23.035156 C 295.734375 106.726563 344.242188 190.046875 392.566406 273.472656 C 393.988281 275.921875 395.640625 278.234375 399.039063 283.480469 C 410.027344 264.511719 419.972656 247.34375 429.90625 230.171875 C 439.804688 213.082031 449.226563 195.691406 459.769531 179.011719 C 465.519531 169.914063 464.285156 163.777344 456.933594 156.328125 C 427.222656 126.246094 392.777344 104.355469 351.019531 96.191406 C 335.519531 93.160156 325.765625 86.394531 322.082031 71.164063 C 357.992188 63.601563 415.734375 90.378906 478.785156 144.566406 C 484.675781 134.660156 491.507813 125.425781 495.601563 115.101563 C 497.117188 111.292969 493.640625 103.347656 489.972656 99.953125 C 439.84375 53.648438 380.652344 28.152344 312.242188 26.40625 C 296.289063 25.996094 287.113281 21.390625 284.277344 0.00390625 C 314.980469 3.898438 345.058594 4.847656 373.660156 11.839844 C 509.636719 45.058594 603.457031 166.582031 602.816406 306.15625 C 602.179688 444.0625 506.441406 563.980469 371.167969 597.21875 C 356.828125 600.742188 349.648438 597.035156 342.410156 584.289063 C 297.96875 505.996094 252.628906 428.214844 207.554688 350.28125 C 204.386719 344.800781 200.941406 339.480469 195.691406 330.929688 "/>
</g>
<g clip-path="url(#clip4)" clip-rule="nonzero">
<path style=" stroke:none;fill-rule:evenodd;fill:rgb(13.699341%,12.199402%,12.5%);fill-opacity:1;" d="M 2494.269531 189.035156 C 2494.269531 214.582031 2494.441406 240.132813 2494.171875 265.675781 C 2494.078125 274.453125 2495.648438 279.972656 2506.398438 279.800781 C 2553.398438 279.058594 2600.5 280.523438 2647.398438 277.972656 C 2696.78125 275.285156 2725.308594 241.539063 2726.589844 189.484375 C 2727.71875 143.574219 2696.589844 103.457031 2651.371094 99.964844 C 2602.878906 96.21875 2553.980469 97.585938 2505.261719 97.765625 C 2501.589844 97.777344 2494.96875 106.046875 2494.789063 110.679688 C 2493.769531 136.765625 2494.300781 162.910156 2494.269531 189.035156 Z M 2635.679688 306.707031 C 2680.359375 355.382813 2722.921875 401.730469 2767.210938 449.976563 C 2744.378906 453.621094 2728.75 451.605469 2714.011719 434.113281 C 2680.351563 394.167969 2644.328125 356.175781 2608.320313 318.292969 C 2602.421875 312.085938 2591.871094 307.75 2583.179688 307.214844 C 2558.878906 305.742188 2534.398438 307.238281 2510.019531 306.5 C 2497.878906 306.132813 2493.808594 310.183594 2494.039063 322.433594 C 2494.699219 358.4375 2494.269531 394.46875 2494.261719 430.492188 C 2494.261719 436.765625 2494.261719 443.042969 2494.261719 450.425781 C 2484.769531 450.425781 2476.878906 450.425781 2467.378906 450.425781 C 2467.378906 325.339844 2467.378906 199.691406 2467.378906 72.632813 C 2471.210938 72.09375 2475.578125 70.949219 2479.949219 70.941406 C 2531.078125 70.824219 2582.210938 70.519531 2633.328125 70.992188 C 2686.03125 71.480469 2726.929688 92.1875 2748.390625 142.652344 C 2779.710938 216.316406 2738.511719 290.398438 2659.480469 303.457031 C 2652.660156 304.578125 2645.789063 305.335938 2635.679688 306.707031 "/>
</g>
<path style=" stroke:none;fill-rule:evenodd;fill:rgb(13.699341%,12.199402%,12.5%);fill-opacity:1;" d="M 830.253906 99.566406 C 830.253906 163.664063 830.253906 227.300781 830.253906 291.609375 C 883.253906 291.609375 935.523438 294.660156 987.253906 290.683594 C 1031.640625 287.273438 1062.578125 243.90625 1062.410156 195.820313 C 1062.238281 146.734375 1031.910156 103.6875 988.035156 100.460938 C 936.25 96.65625 883.96875 99.566406 830.253906 99.566406 Z M 829.425781 319.523438 C 829.425781 364.277344 829.425781 406.542969 829.425781 450.191406 C 819.882813 450.191406 811.511719 450.191406 801.289063 450.191406 C 800.855469 445.875 799.9375 440.9375 799.933594 436.003906 C 799.882813 320.378906 800.167969 204.757813 799.660156 89.136719 C 799.59375 74.667969 803.734375 70.296875 818.265625 70.546875 C 867.640625 71.394531 917.035156 71.214844 966.421875 70.851563 C 1078.230469 70.027344 1115.351563 184.628906 1075.230469 258.117188 C 1053.101563 298.640625 1017.851563 317.929688 972.824219 319.1875 C 931.601563 320.335938 890.324219 319.492188 849.070313 319.523438 C 843.355469 319.527344 837.632813 319.523438 829.425781 319.523438 "/>
<path style=" stroke:none;fill-rule:evenodd;fill:rgb(13.699341%,12.199402%,12.5%);fill-opacity:1;" d="M 1698.640625 256.035156 C 1744.730469 320.375 1790.570313 384.386719 1837.28125 449.613281 C 1814.96875 455.167969 1801.480469 450.304688 1789.261719 431.652344 C 1758.71875 385.035156 1725.511719 340.15625 1693.308594 294.617188 C 1689.730469 289.550781 1685.78125 284.753906 1680.929688 278.433594 C 1676.449219 284.175781 1672.820313 288.445313 1669.601563 293.007813 C 1636.710938 339.488281 1602.910156 385.363281 1571.570313 432.859375 C 1559.488281 451.160156 1545.640625 454.230469 1524.289063 449.84375 C 1544.300781 421.820313 1563.371094 395.046875 1582.511719 368.328125 C 1606.519531 334.789063 1630.238281 301.03125 1654.851563 267.9375 C 1661.621094 258.828125 1661.128906 252.726563 1654.699219 243.722656 C 1617.890625 192.195313 1581.738281 140.195313 1545.421875 88.328125 C 1542.210938 83.753906 1539.378906 78.925781 1535.820313 73.359375 C 1554.789063 68.578125 1567.050781 72.046875 1578.070313 88.511719 C 1608.089844 133.390625 1640.21875 176.867188 1671.570313 220.863281 C 1674.148438 224.492188 1677.101563 227.859375 1681.210938 233.03125 C 1697.308594 210.667969 1712.53125 189.652344 1727.621094 168.539063 C 1746.871094 141.601563 1765.980469 114.558594 1785.21875 87.601563 C 1798.511719 68.96875 1799.140625 68.792969 1826.320313 73.878906 C 1783.609375 134.8125 1741.421875 195.007813 1698.640625 256.035156 "/>
<path style=" stroke:none;fill-rule:evenodd;fill:rgb(13.699341%,12.199402%,12.5%);fill-opacity:1;" d="M 2030.769531 71.832031 C 2039.75 71.832031 2047.628906 71.832031 2057.671875 71.832031 C 2057.671875 188.917969 2057.671875 305.355469 2057.671875 423.953125 C 2130.269531 423.953125 2200.769531 423.953125 2272.210938 423.953125 C 2272.210938 433.90625 2272.210938 441.683594 2272.210938 450.519531 C 2191.53125 450.519531 2111.679688 450.519531 2030.769531 450.519531 C 2030.769531 324.652344 2030.769531 199.433594 2030.769531 71.832031 "/>
<path style=" stroke:none;fill-rule:evenodd;fill:rgb(13.699341%,12.199402%,12.5%);fill-opacity:1;" d="M 1320.191406 450.765625 C 1311.441406 450.765625 1303.578125 450.765625 1294.390625 450.765625 C 1294.390625 324.828125 1294.390625 199.5625 1294.390625 72.113281 C 1302.488281 71.746094 1310.730469 71.371094 1320.191406 70.945313 C 1320.191406 197.980469 1320.191406 323.320313 1320.191406 450.765625 "/>
<path style=" stroke:none;fill-rule:evenodd;fill:rgb(100%,100%,100%);fill-opacity:1;" d="M 369.3125 381.238281 C 418.390625 296.222656 466.40625 213.027344 515.832031 127.402344 C 537.457031 152.335938 551.988281 178.75 562.539063 207.421875 C 582.109375 260.582031 584.875 314.828125 571.945313 369.941406 C 570.140625 377.628906 568.355469 383.703125 557.828125 383.625 C 497.488281 383.125 437.136719 383.300781 376.789063 383.179688 C 375.167969 383.175781 373.546875 382.371094 369.3125 381.238281 "/>
<path style=" stroke:none;fill-rule:evenodd;fill:rgb(100%,100%,100%);fill-opacity:1;" d="M 268.238281 407.570313 C 365.578125 407.570313 461.117188 407.570313 558.121094 407.570313 C 556.636719 412.367188 555.855469 416.847656 553.933594 420.777344 C 516.8125 496.890625 458.203125 547.707031 376.671875 571.953125 C 366.949219 574.839844 362.398438 573.183594 357.40625 564.375 C 329.375 514.875 300.671875 465.757813 272.246094 416.480469 C 270.894531 414.136719 270 411.519531 268.238281 407.570313 "/>
<path style=" stroke:none;fill-rule:evenodd;fill:rgb(100%,100%,100%);fill-opacity:1;" d="M 36.53125 206.679688 C 54.804688 177.867188 69.21875 150.816406 87.71875 126.929688 C 120.164063 85.027344 163.410156 57.023438 213.652344 40.421875 C 219.121094 38.613281 230.089844 40.050781 232.28125 43.710938 C 264.121094 96.902344 294.894531 150.730469 327.238281 206.679688 C 231.140625 206.679688 137.582031 206.679688 36.53125 206.679688 "/>
<path style=" stroke:none;fill-rule:evenodd;fill:rgb(100%,100%,100%);fill-opacity:1;" d="M 226.609375 231.207031 C 178.054688 315.34375 131.867188 395.371094 84.457031 477.523438 C 55.324219 441.738281 37.636719 403.316406 28.804688 360.847656 C 20.675781 321.761719 20.398438 282.476563 30.433594 243.628906 C 31.660156 238.871094 37.507813 231.78125 41.289063 231.734375 C 101.535156 230.980469 161.792969 231.207031 226.609375 231.207031 "/>
<path style=" stroke:none;fill-rule:evenodd;fill:rgb(100%,100%,100%);fill-opacity:1;" d="M 296.546875 381.539063 C 262.445313 392.824219 247.191406 374.003906 230.628906 346.949219 C 212.941406 318.0625 212.382813 297.132813 230.308594 267.769531 C 247.054688 240.324219 263.632813 229.585938 296.347656 229.617188 C 330.023438 229.644531 348.429688 239.011719 365.132813 269.144531 C 380.875 297.539063 381.597656 317.25 365.066406 345.335938 C 348.203125 373.984375 332.066406 393.21875 296.546875 381.539063 "/>
<path style=" stroke:none;fill-rule:evenodd;fill:rgb(100%,100%,100%);fill-opacity:1;" d="M 2494.28125 189.035156 C 2494.300781 162.910156 2493.769531 136.765625 2494.789063 110.679688 C 2494.96875 106.046875 2501.589844 97.777344 2505.261719 97.765625 C 2553.980469 97.585938 2602.878906 96.21875 2651.371094 99.964844 C 2696.589844 103.457031 2727.71875 143.574219 2726.589844 189.484375 C 2725.308594 241.539063 2696.78125 275.285156 2647.398438 277.972656 C 2600.5 280.523438 2553.398438 279.058594 2506.398438 279.800781 C 2495.648438 279.972656 2494.078125 274.453125 2494.171875 265.675781 C 2494.441406 240.132813 2494.269531 214.582031 2494.28125 189.035156 "/>
<path style=" stroke:none;fill-rule:evenodd;fill:rgb(100%,100%,100%);fill-opacity:1;" d="M 830.253906 99.566406 C 883.96875 99.566406 936.25 96.65625 988.035156 100.460938 C 1031.910156 103.6875 1062.238281 146.734375 1062.410156 195.820313 C 1062.578125 243.90625 1031.640625 287.273438 987.253906 290.683594 C 935.523438 294.660156 883.253906 291.609375 830.253906 291.609375 C 830.253906 227.300781 830.253906 163.664063 830.253906 99.566406 "/>
</g>
</svg>
