<svg xmlns="http://www.w3.org/2000/svg" viewBox="6 0 116 32">
  <path d="M 20 0 L 6 15 C 4 17 5 18 6 19 L 22 32 L 26 26 L 14 16 L 26 4 Z M 30 4 C 29 1 31 0 34 0 L 34 0 L 54 0 L 52 6 L 42 6 C 41 6 39 6 40 8 L 42 12 L 50 12 L 48 18 L 44 18 L 50 32 L 42 32 Z m 34 -4 Q 68 -1 72 0 Q 76 2 78 4 L 74 9 Q 73 7 70 6 Q 67 5 65 7 Q 62 9 62 13 Q 62 16 63 19 Q 64 25 70 25 Q 74 25 77 21 L 79 27 Q 76 30 72 32 Q 68 33 65 32 Q 62 30 60 28 Q 57 23 56 18 L 56 12 Q 57 6 60 2 Z M 94 0 L 80 32 L 86 32 L 100 0 Z M 105 0 L 101 10 L 106 10 L 106 10 L 114 16 L 96 32 L 106 32 L 122 18 Q 124 16 122 14 Z" fill="#ff8906"/>
</svg>