<svg width="100" height="40" viewBox="0 0 100 40" fill="none" xmlns="http://www.w3.org/2000/svg">
<g clip-path="url(#clip0)">
<path d="M99.9998 37.0001C99.9998 38.657 98.6567 40.0001 96.9998 40.0001L2.99982 40.0001C1.34297 40.0001 -0.000177145 38.657 -0.000177145 37.0001V3.00012C-0.000177145 1.34327 1.34297 0.000124454 2.99982 0.000124454L96.9998 0.000124454C98.6567 0.000124454 99.9998 1.34327 99.9998 3.00012V37.0001Z" fill="#0F0E17"/>
<g opacity="0.7">
<path d="M70.5263 22.138C68.921 21.1648 68.921 18.8355 70.5263 17.8623L93.2038 4.1148C94.8699 3.10478 96.9998 4.30431 96.9998 6.25264V33.7476C96.9998 35.6959 94.8699 36.8955 93.2038 35.8855L70.5263 22.138Z" fill="#E53170"/>
<path d="M70.5263 22.138C68.921 21.1648 68.921 18.8355 70.5263 17.8623L93.2038 4.1148C94.8699 3.10478 96.9998 4.30431 96.9998 6.25264V33.7476C96.9998 35.6959 94.8699 36.8955 93.2038 35.8855L70.5263 22.138Z" fill="#F25F4C"/>
</g>
<g opacity="0.7">
<path d="M55.5263 22.138C53.921 21.1648 53.921 18.8355 55.5263 17.8623L78.2038 4.1148C79.8699 3.10478 81.9998 4.30431 81.9998 6.25264V33.7476C81.9998 35.6959 79.8699 36.8955 78.2038 35.8855L55.5263 22.138Z" fill="#F25F4C"/>
<path d="M55.5263 22.138C53.921 21.1648 53.921 18.8355 55.5263 17.8623L78.2038 4.1148C79.8699 3.10478 81.9998 4.30431 81.9998 6.25264V33.7476C81.9998 35.6959 79.8699 36.8955 78.2038 35.8855L55.5263 22.138Z" fill="#E53170"/>
</g>
<path opacity="0.7" d="M29.4731 17.8623C31.0785 18.8355 31.0785 21.1648 29.4731 22.138L6.79567 35.8855C5.12958 36.8955 2.99967 35.696 2.99967 33.7477L2.99967 6.2527C2.99967 4.30437 5.12958 3.10484 6.79567 4.11485L29.4731 17.8623Z" fill="#FF8906"/>
<circle cx="41.9998" cy="20.0001" r="5" transform="rotate(-180 41.9998 20.0001)" fill="#A7A9BE"/>
</g>
<defs>
<clipPath id="clip0">
<path d="M99.9998 37.0001C99.9998 38.657 98.6567 40.0001 96.9998 40.0001L2.99982 40.0001C1.34297 40.0001 -0.000177145 38.657 -0.000177145 37.0001V3.00012C-0.000177145 1.34327 1.34297 0.000124454 2.99982 0.000124454L96.9998 0.000124454C98.6567 0.000124454 99.9998 1.34327 99.9998 3.00012V37.0001Z" fill="white"/>
</clipPath>
</defs>
</svg>
