<svg width="98" height="40" viewBox="0 0 98 40" fill="none" xmlns="http://www.w3.org/2000/svg">
<g clipPath="url(#clip0)">
<path d="M98 37C98 38.6569 96.6569 40 95 40L3 40C1.34314 40 -1.78814e-06 38.6569 -1.78814e-06 37V3C-1.78814e-06 1.34314 1.34314 -1.43051e-06 3 -1.43051e-06L95 -1.43051e-06C96.6569 -1.43051e-06 98 1.34314 98 3V37Z" fill="#0F0E17"/>
<g opacity="0.85">
<path d="M68.6266 22.1504C66.9933 21.182 66.9933 18.818 68.6266 17.8496L88.9749 5.78397C90.6414 4.79581 92.75 5.99692 92.75 7.93435V32.0656C92.75 34.0031 90.6414 35.2042 88.9749 34.216L68.6266 22.1504Z" fill="#E53170"/>
<path d="M68.6266 22.1504C66.9933 21.182 66.9933 18.818 68.6266 17.8496L88.9749 5.78397C90.6414 4.79581 92.75 5.99692 92.75 7.93435V32.0656C92.75 34.0031 90.6414 35.2042 88.9749 34.216L68.6266 22.1504Z" fill="#F25F4C"/>
</g>
<g opacity="0.7">
<path d="M48.5545 22.1414C46.9413 21.1695 46.9413 18.8305 48.5545 17.8586L75.7099 1.49874C77.3761 0.494915 79.5 1.69491 79.5 3.64015V36.3598C79.5 38.3051 77.3761 39.5051 75.7099 38.5013L48.5545 22.1414Z" fill="#F25F4C"/>
<path d="M48.5545 22.1414C46.9413 21.1695 46.9413 18.8305 48.5545 17.8586L75.7099 1.49874C77.3761 0.494915 79.5 1.69491 79.5 3.64015V36.3598C79.5 38.3051 77.3761 39.5051 75.7099 38.5013L48.5545 22.1414Z" fill="#E53170"/>
</g>
<ellipse opacity="0.85" cx="40.5002" cy="20.4999" rx="18.5" ry="17.5" transform="rotate(-180 40.5002 20.4999)" fill="#A7A9BE"/>
<path opacity="0.76" d="M32.4735 17.8622C34.0788 18.8354 34.0788 21.1647 32.4735 22.1379L9.796 35.8854C8.12991 36.8954 6 35.6959 6 33.7475L6 6.25258C6 4.30425 8.12991 3.10472 9.796 4.11473L32.4735 17.8622Z" fill="#FF8906"/>
</g>
<defs>
<clipPath id="clip0">
<path d="M98 37C98 38.6569 96.6569 40 95 40L3 40C1.34314 40 -1.78814e-06 38.6569 -1.78814e-06 37V3C-1.78814e-06 1.34314 1.34314 -1.43051e-06 3 -1.43051e-06L95 -1.43051e-06C96.6569 -1.43051e-06 98 1.34314 98 3V37Z" fill="white"/>
</clipPath>
</defs>
</svg>
